<mxfile host="app.diagrams.net" modified="2021-07-08T02:24:16.877Z" agent="5.0 (Windows NT 10.0; Win64; x64) AppleWebKit/537.36 (KHTML, like Gecko) Chrome/80.0.3987.122 Safari/537.36" etag="RRyY_X6tgEwyDC8iAYXg" version="14.7.6" type="github">
  <diagram id="CeuNqHNBXfaNcoWhmxNZ" name="Page-1">
    <mxGraphModel dx="2708" dy="896" grid="1" gridSize="10" guides="1" tooltips="1" connect="1" arrows="1" fold="1" page="1" pageScale="1" pageWidth="1169" pageHeight="827" math="0" shadow="0">
      <root>
        <mxCell id="0" />
        <mxCell id="1" parent="0" />
        <mxCell id="YVEur4traXvJz6K6Ptun-1" value="start" style="strokeWidth=2;html=1;shape=mxgraph.flowchart.start_2;whiteSpace=wrap;" vertex="1" parent="1">
          <mxGeometry x="289" y="20" width="70" height="70" as="geometry" />
        </mxCell>
        <mxCell id="YVEur4traXvJz6K6Ptun-2" value="end" style="strokeWidth=2;html=1;shape=mxgraph.flowchart.start_2;whiteSpace=wrap;" vertex="1" parent="1">
          <mxGeometry x="289" y="690" width="70" height="70" as="geometry" />
        </mxCell>
        <mxCell id="YVEur4traXvJz6K6Ptun-3" value="create global rap" style="rounded=1;whiteSpace=wrap;html=1;" vertex="1" parent="1">
          <mxGeometry x="264" y="290" width="120" height="60" as="geometry" />
        </mxCell>
        <mxCell id="YVEur4traXvJz6K6Ptun-4" value="validation data" style="rounded=1;whiteSpace=wrap;html=1;" vertex="1" parent="1">
          <mxGeometry x="264" y="160" width="120" height="60" as="geometry" />
        </mxCell>
        <mxCell id="YVEur4traXvJz6K6Ptun-5" value="create/update suspens with status &quot;RAP&quot;" style="rounded=1;whiteSpace=wrap;html=1;" vertex="1" parent="1">
          <mxGeometry x="264" y="430" width="120" height="60" as="geometry" />
        </mxCell>
        <mxCell id="YVEur4traXvJz6K6Ptun-6" value="create unity rap" style="rounded=1;whiteSpace=wrap;html=1;" vertex="1" parent="1">
          <mxGeometry x="264" y="560" width="120" height="60" as="geometry" />
        </mxCell>
        <mxCell id="YVEur4traXvJz6K6Ptun-7" value="" style="endArrow=classic;html=1;exitX=0.5;exitY=1;exitDx=0;exitDy=0;exitPerimeter=0;" edge="1" parent="1" source="YVEur4traXvJz6K6Ptun-1" target="YVEur4traXvJz6K6Ptun-4">
          <mxGeometry width="50" height="50" relative="1" as="geometry">
            <mxPoint x="689" y="430" as="sourcePoint" />
            <mxPoint x="739" y="380" as="targetPoint" />
          </mxGeometry>
        </mxCell>
        <mxCell id="YVEur4traXvJz6K6Ptun-8" value="" style="endArrow=classic;html=1;exitX=0.5;exitY=1;exitDx=0;exitDy=0;" edge="1" parent="1" source="YVEur4traXvJz6K6Ptun-4" target="YVEur4traXvJz6K6Ptun-3">
          <mxGeometry width="50" height="50" relative="1" as="geometry">
            <mxPoint x="349" y="250" as="sourcePoint" />
            <mxPoint x="389" y="280" as="targetPoint" />
          </mxGeometry>
        </mxCell>
        <mxCell id="YVEur4traXvJz6K6Ptun-9" value="" style="endArrow=classic;html=1;exitX=0.5;exitY=1;exitDx=0;exitDy=0;entryX=0.5;entryY=0;entryDx=0;entryDy=0;" edge="1" parent="1" source="YVEur4traXvJz6K6Ptun-5" target="YVEur4traXvJz6K6Ptun-6">
          <mxGeometry width="50" height="50" relative="1" as="geometry">
            <mxPoint x="429" y="560" as="sourcePoint" />
            <mxPoint x="349" y="550" as="targetPoint" />
          </mxGeometry>
        </mxCell>
        <mxCell id="YVEur4traXvJz6K6Ptun-11" value="" style="endArrow=classic;html=1;entryX=0.5;entryY=0;entryDx=0;entryDy=0;exitX=0.5;exitY=1;exitDx=0;exitDy=0;" edge="1" parent="1" source="YVEur4traXvJz6K6Ptun-3" target="YVEur4traXvJz6K6Ptun-5">
          <mxGeometry width="50" height="50" relative="1" as="geometry">
            <mxPoint x="324" y="380" as="sourcePoint" />
            <mxPoint x="349" y="410" as="targetPoint" />
          </mxGeometry>
        </mxCell>
        <mxCell id="YVEur4traXvJz6K6Ptun-13" value="" style="endArrow=classic;html=1;exitX=0.5;exitY=1;exitDx=0;exitDy=0;entryX=0.5;entryY=0;entryDx=0;entryDy=0;entryPerimeter=0;" edge="1" parent="1" source="YVEur4traXvJz6K6Ptun-6" target="YVEur4traXvJz6K6Ptun-2">
          <mxGeometry width="50" height="50" relative="1" as="geometry">
            <mxPoint x="689" y="430" as="sourcePoint" />
            <mxPoint x="739" y="380" as="targetPoint" />
          </mxGeometry>
        </mxCell>
        <mxCell id="YVEur4traXvJz6K6Ptun-14" value="start" style="strokeWidth=2;html=1;shape=mxgraph.flowchart.start_2;whiteSpace=wrap;" vertex="1" parent="1">
          <mxGeometry x="865" y="20" width="70" height="70" as="geometry" />
        </mxCell>
        <mxCell id="YVEur4traXvJz6K6Ptun-15" value="end" style="strokeWidth=2;html=1;shape=mxgraph.flowchart.start_2;whiteSpace=wrap;" vertex="1" parent="1">
          <mxGeometry x="865" y="690" width="70" height="70" as="geometry" />
        </mxCell>
        <mxCell id="YVEur4traXvJz6K6Ptun-16" value="create global rap" style="rounded=1;whiteSpace=wrap;html=1;" vertex="1" parent="1">
          <mxGeometry x="840" y="290" width="120" height="60" as="geometry" />
        </mxCell>
        <mxCell id="YVEur4traXvJz6K6Ptun-17" value="validation data" style="rounded=1;whiteSpace=wrap;html=1;" vertex="1" parent="1">
          <mxGeometry x="840" y="160" width="120" height="60" as="geometry" />
        </mxCell>
        <mxCell id="YVEur4traXvJz6K6Ptun-18" value="create or update suspens with status &quot;ATT&quot;" style="rounded=1;whiteSpace=wrap;html=1;" vertex="1" parent="1">
          <mxGeometry x="840" y="430" width="120" height="60" as="geometry" />
        </mxCell>
        <mxCell id="YVEur4traXvJz6K6Ptun-19" value="create unity rap and update suspens status to &quot;RAP&quot;" style="rounded=1;whiteSpace=wrap;html=1;" vertex="1" parent="1">
          <mxGeometry x="840" y="560" width="120" height="60" as="geometry" />
        </mxCell>
        <mxCell id="YVEur4traXvJz6K6Ptun-20" value="" style="endArrow=classic;html=1;exitX=0.5;exitY=1;exitDx=0;exitDy=0;exitPerimeter=0;" edge="1" parent="1" source="YVEur4traXvJz6K6Ptun-14" target="YVEur4traXvJz6K6Ptun-17">
          <mxGeometry width="50" height="50" relative="1" as="geometry">
            <mxPoint x="1265" y="430" as="sourcePoint" />
            <mxPoint x="1315" y="380" as="targetPoint" />
          </mxGeometry>
        </mxCell>
        <mxCell id="YVEur4traXvJz6K6Ptun-21" value="" style="endArrow=classic;html=1;exitX=0.5;exitY=1;exitDx=0;exitDy=0;" edge="1" parent="1" source="YVEur4traXvJz6K6Ptun-17" target="YVEur4traXvJz6K6Ptun-16">
          <mxGeometry width="50" height="50" relative="1" as="geometry">
            <mxPoint x="925" y="250" as="sourcePoint" />
            <mxPoint x="965" y="280" as="targetPoint" />
          </mxGeometry>
        </mxCell>
        <mxCell id="YVEur4traXvJz6K6Ptun-22" value="" style="endArrow=classic;html=1;exitX=0.5;exitY=1;exitDx=0;exitDy=0;entryX=0.5;entryY=0;entryDx=0;entryDy=0;" edge="1" parent="1" source="YVEur4traXvJz6K6Ptun-18" target="YVEur4traXvJz6K6Ptun-19">
          <mxGeometry width="50" height="50" relative="1" as="geometry">
            <mxPoint x="1005" y="560" as="sourcePoint" />
            <mxPoint x="925" y="550" as="targetPoint" />
          </mxGeometry>
        </mxCell>
        <mxCell id="YVEur4traXvJz6K6Ptun-23" value="" style="endArrow=classic;html=1;entryX=0.5;entryY=0;entryDx=0;entryDy=0;exitX=0.5;exitY=1;exitDx=0;exitDy=0;" edge="1" parent="1" source="YVEur4traXvJz6K6Ptun-16" target="YVEur4traXvJz6K6Ptun-18">
          <mxGeometry width="50" height="50" relative="1" as="geometry">
            <mxPoint x="900" y="380" as="sourcePoint" />
            <mxPoint x="925" y="410" as="targetPoint" />
          </mxGeometry>
        </mxCell>
        <mxCell id="YVEur4traXvJz6K6Ptun-24" value="" style="endArrow=classic;html=1;exitX=0.5;exitY=1;exitDx=0;exitDy=0;entryX=0.5;entryY=0;entryDx=0;entryDy=0;entryPerimeter=0;" edge="1" parent="1" source="YVEur4traXvJz6K6Ptun-19" target="YVEur4traXvJz6K6Ptun-15">
          <mxGeometry width="50" height="50" relative="1" as="geometry">
            <mxPoint x="1265" y="430" as="sourcePoint" />
            <mxPoint x="1315" y="380" as="targetPoint" />
          </mxGeometry>
        </mxCell>
      </root>
    </mxGraphModel>
  </diagram>
</mxfile>
